<?xml version="1.0" encoding="UTF-8" standalone="no"?>
<svg
   viewBox="0 0 32 32"
   version="1.1"
   id="svg6"
   sodipodi:docname="icon.svg"
   xml:space="preserve"
   inkscape:version="1.3 (0e150ed6c4, 2023-07-21)"
   xmlns:inkscape="http://www.inkscape.org/namespaces/inkscape"
   xmlns:sodipodi="http://sodipodi.sourceforge.net/DTD/sodipodi-0.dtd"
   xmlns="http://www.w3.org/2000/svg"
   xmlns:svg="http://www.w3.org/2000/svg"><defs
     id="defs6"><style
       id="style1">.cls-1{fill:#fff;}</style></defs><sodipodi:namedview
     id="namedview6"
     pagecolor="#ffffff"
     bordercolor="#000000"
     borderopacity="0.25"
     inkscape:showpageshadow="2"
     inkscape:pageopacity="0.0"
     inkscape:pagecheckerboard="0"
     inkscape:deskcolor="#d1d1d1"
     inkscape:zoom="8.5847183"
     inkscape:cx="-3.3780957"
     inkscape:cy="30.577591"
     inkscape:window-width="1920"
     inkscape:window-height="991"
     inkscape:window-x="-9"
     inkscape:window-y="-9"
     inkscape:window-maximized="1"
     inkscape:current-layer="svg6" /><g
     id="transparent_light"
     transform="matrix(0.02748463,0,0,0.02748463,2.207998,2.4752134)"><circle
       class="cls-1"
       cx="500"
       cy="500"
       r="133.31"
       id="circle1" /><path
       class="cls-1"
       d="M 861,436.34 C 896.1,635.42 762.7,825.94 563.62,861.04 364.54,896.14 174.07,762.74 139,563.66 103.93,364.58 237.26,174.07 436.34,139 L 771,80 A 498.13,498.13 0 0 0 413.19,7.68 C 141.29,55.62 -40.26,314.91 7.68,586.81 55.62,858.71 314.91,1040.27 586.81,992.32 858.71,944.37 1040.26,685.1 992.32,413.19 A 500.55,500.55 0 0 0 951.44,285 L 813.18,309.41 A 367.41,367.41 0 0 1 861,436.34 Z"
       id="path1" /><path
       class="cls-1"
       d="m 447.91,204.61 c -162.87,28.72 -272,184.6 -243.3,347.48 28.7,162.88 184.6,272 347.48,243.31 162.88,-28.69 272,-184.6 243.3,-347.48 A 300.17,300.17 0 0 0 741.52,322.05 l -118,20.81 a 199.14,199.14 0 0 1 73.46,122.42 C 716.13,573.87 643.36,677.79 534.77,696.93 426.18,716.07 322.27,643.31 303.12,534.73 283.97,426.15 356.74,322.22 465.33,303.07 L 916.59,223.5 a 499.08,499.08 0 0 0 -74.8,-88.34 z"
       id="path2-0" /></g></svg>
